<svg version="1.1" xmlns="http://www.w3.org/2000/svg" width="703.34" height="675.6" viewBox="0 0 703.34 675.6">
  <g transform="translate(109.6,145.34)">
    <g fill-rule="evenodd">
      <!-- 绿色背景/边框 -->
      <path d="M593.74,462.48c0,37.43 -30.35,67.78 -67.78,67.78h-567.78c-37.43,0 -67.78,-30.35 -67.78,-67.78v-540.04c0,-37.43 30.35,-67.78 67.78,-67.78h567.78c37.43,0 67.78,30.35 67.78,67.78zM242.01,512.89c168.49,0 262.98,-0.02 283.49,-0.07c6.01,-0.02 11.71,-0.95 17.12,-2.8c0.5,-0.17 0.98,-0.43 1.4,-0.75c1.07,-0.81 2.22,-1.3 3.45,-1.49c0.67,-0.1 1.33,-0.32 1.93,-0.65c12.53,-6.9 20.84,-17.13 24.95,-30.7c1.64,-5.42 2.05,-11.04 2.04,-16.93c-0.01,-297.39 -0.01,-473.64 0.02,-528.73c0,-9.63 -0.49,-16.42 -1.47,-20.37c-5.6,-22.65 -25.29,-38.32 -48.94,-38.41c-1.64,-0.01 -96.3,-0.01 -283.99,-0.01c-187.69,0 -282.35,0 -283.99,0.01c-23.65,0.09 -43.34,15.76 -48.94,38.41c-0.98,3.95 -1.47,10.74 -1.47,20.37c0.03,55.09 0.03,231.34 0.02,528.73c-0.01,5.89 0.4,11.51 2.04,16.93c4.11,13.57 12.42,23.8 24.95,30.7c0.6,0.33 1.26,0.55 1.93,0.65c1.23,0.19 2.38,0.68 3.45,1.49c0.42,0.32 0.9,0.58 1.4,0.75c5.41,1.85 11.11,2.79 17.12,2.8c20.5,0.05 115,0.07 283.49,0.07z" fill="#359b47"/>
      
      <!-- 白色内部区域 -->
      <path d="M241.56,-128.02c187.69,0 282.35,0 283.99,0.01c23.65,0.09 43.34,15.76 48.94,38.41c0.98,3.95 1.47,10.74 1.47,20.37c-0.03,55.09 -0.03,231.34 -0.02,528.73c0.01,5.89 -0.4,11.51 -2.04,16.93c-4.11,13.57 -12.42,23.8 -24.95,30.7c-0.6,0.33 -6.28,2.72 -6.78,2.89c-5.41,1.85 -11.11,2.79 -17.12,2.8c-20.5,0.05 -115,0.07 -283.49,0.07c-168.49,0 -262.98,-0.02 -283.49,-0.07c-6.01,-0.02 -11.71,-0.95 -17.12,-2.8c-0.5,-0.17 -6.18,-2.56 -6.78,-2.89c-12.53,-6.9 -20.84,-17.13 -24.95,-30.7c-1.64,-5.42 -2.05,-11.04 -2.04,-16.93c0.01,-297.39 0.01,-473.64 -0.02,-528.73c0,-9.63 0.49,-16.42 1.47,-20.37c5.6,-22.65 25.29,-38.32 48.94,-38.41c1.64,-0.01 96.3,-0.01 283.99,-0.01zM-76.16,0.82c-0.03,154.04 -0.05,307.85 -0.06,461.43c0,15.11 9.86,28.48 23.99,32.79c3.13,0.95 9.88,1.43 20.24,1.43c309.04,0.03 494.89,0.02 557.54,-0.05c15.64,-0.01 29,-10.35 32.99,-25.13c0.73,-2.69 1.09,-9.92 1.09,-21.68c0.03,-75.96 -0.02,-225.16 -0.13,-447.6c0,-0.19 -0.07,-0.59 -0.21,-1.2c0.16,-25.06 0.17,-50.34 0.03,-75.84c-0.03,-5.83 -0.5,-10.15 -1.41,-12.97c-4.66,-14.47 -17.89,-23.8 -33.12,-23.81c-260.38,-0.07 -449.21,-0.06 -566.49,0.02c-15.75,0.01 -29.36,10.08 -33.48,24.95c-0.72,2.59 -1.1,9.87 -1.13,21.82c-0.07,22.12 -0.02,44.07 0.15,65.84z" fill="#ffffff"/>
      
      <!-- 红色顶部横条 -->
      <path class="road-type-color" d="M559.29,0.81l-635.45,0.01c-0.17,-21.77 -0.22,-43.72 -0.15,-65.84c0.03,-11.95 0.41,-19.23 1.13,-21.82c4.12,-14.87 17.73,-24.94 33.48,-24.95c117.28,-0.08 306.11,-0.09 566.49,-0.02c15.23,0.01 28.46,9.34 33.12,23.81c0.91,2.82 1.38,7.14 1.41,12.97c0.14,25.5 0.13,50.78 -0.03,75.84z" fill="#ee2d2d"/>
      
      <!-- 绿色底部主体 -->
      <path d="M559.29,0.81c0.14,0.61 0.21,1.01 0.21,1.2c0.11,222.44 0.16,371.64 0.13,447.6c0,11.76 -0.36,18.99 -1.09,21.68c-3.99,14.78 -17.35,25.12 -32.99,25.13c-62.65,0.07 -248.5,0.08 -557.54,0.05c-10.36,0 -17.11,-0.48 -20.24,-1.43c-14.13,-4.31 -23.99,-17.68 -23.99,-32.79c0.01,-153.58 0.03,-307.39 0.06,-461.43z" fill="#359b47"/>
    </g>
  </g>
</svg>